<?xml version="1.0" encoding="UTF-8" standalone="no"?>
<!DOCTYPE svg PUBLIC "-//W3C//DTD SVG 1.1//EN"
 "http://www.w3.org/Graphics/SVG/1.1/DTD/svg11.dtd">
<!-- Generated by graphviz version 14.1.4 (20260321.0153)
 -->
<!-- Title: hookshot Pages: 1 -->
<svg width="354pt" height="617pt"
 viewBox="0.00 0.00 354.00 617.00" xmlns="http://www.w3.org/2000/svg" xmlns:xlink="http://www.w3.org/1999/xlink">
<g id="graph0" class="graph" transform="scale(1 1) rotate(0) translate(4 613.25)">
<title>hookshot</title>
<g id="clust1" class="cluster">
<title>cluster_replay</title>
<polygon fill="none" stroke="#6c757d" stroke-dasharray="5,2" points="207.5,-428.75 207.5,-601.25 337.5,-601.25 337.5,-428.75 207.5,-428.75"/>
<text xml:space="preserve" text-anchor="middle" x="272.5" y="-587.75" font-family="Helvetica,sans-Serif" font-size="10.00">Replay Handler</text>
</g>
<!-- webhook -->
<g id="node1" class="node">
<title>webhook</title>
<polygon fill="#d4edda" stroke="#28a745" points="315,-391 212,-391 212,-355 315,-355 315,-391"/>
<text xml:space="preserve" text-anchor="middle" x="263.5" y="-368.55" font-family="Helvetica,sans-Serif" font-size="11.00">Webhook Handler</text>
</g>
<!-- errgroup -->
<g id="node4" class="node">
<title>errgroup</title>
<polygon fill="#fff3cd" stroke="#ffc107" points="173.5,-309.25 99,-277.25 173.5,-245.25 248,-277.25 173.5,-309.25"/>
<text xml:space="preserve" text-anchor="middle" x="173.5" y="-278.8" font-family="Helvetica,sans-Serif" font-size="11.00">errgroup</text>
<text xml:space="preserve" text-anchor="middle" x="173.5" y="-266.8" font-family="Helvetica,sans-Serif" font-size="11.00">(concurrent)</text>
</g>
<!-- webhook&#45;&gt;errgroup -->
<g id="edge1" class="edge">
<title>webhook&#45;&gt;errgroup</title>
<path fill="none" stroke="#495057" d="M246.99,-354.8C234.58,-341.87 217.24,-323.81 202.53,-308.49"/>
<polygon fill="#495057" stroke="#495057" points="205.17,-306.18 195.72,-301.39 200.12,-311.03 205.17,-306.18"/>
<text xml:space="preserve" text-anchor="middle" x="263.33" y="-328.45" font-family="Helvetica,sans-Serif" font-size="9.00">captures request</text>
</g>
<!-- browser_ws -->
<g id="node2" class="node">
<title>browser_ws</title>
<polygon fill="#cce5ff" stroke="#007bff" points="97,-36 18,-36 18,0 97,0 97,-36"/>
<text xml:space="preserve" text-anchor="middle" x="57.5" y="-19.55" font-family="Helvetica,sans-Serif" font-size="11.00">Browser</text>
<text xml:space="preserve" text-anchor="middle" x="57.5" y="-7.55" font-family="Helvetica,sans-Serif" font-size="11.00">(WebSocket)</text>
</g>
<!-- browser_sse -->
<g id="node3" class="node">
<title>browser_sse</title>
<polygon fill="#cce5ff" stroke="#007bff" points="218.75,-36 162.25,-36 162.25,0 218.75,0 218.75,-36"/>
<text xml:space="preserve" text-anchor="middle" x="190.5" y="-19.55" font-family="Helvetica,sans-Serif" font-size="11.00">Browser</text>
<text xml:space="preserve" text-anchor="middle" x="190.5" y="-7.55" font-family="Helvetica,sans-Serif" font-size="11.00">(SSE)</text>
</g>
<!-- hub -->
<g id="node5" class="node">
<title>hub</title>
<polygon fill="#e2e3e5" stroke="#6c757d" points="171.25,-199.5 75.75,-199.5 75.75,-163.5 171.25,-163.5 171.25,-199.5"/>
<text xml:space="preserve" text-anchor="middle" x="123.5" y="-183.05" font-family="Helvetica,sans-Serif" font-size="11.00">Hub</text>
<text xml:space="preserve" text-anchor="middle" x="123.5" y="-171.05" font-family="Helvetica,sans-Serif" font-size="11.00">(sync.RWMutex)</text>
</g>
<!-- errgroup&#45;&gt;hub -->
<g id="edge3" class="edge">
<title>errgroup&#45;&gt;hub</title>
<path fill="none" stroke="#495057" d="M150.29,-254.7C143.03,-246.75 135.7,-237.23 131,-227.25 128.61,-222.17 126.97,-216.45 125.84,-210.85"/>
<polygon fill="#495057" stroke="#495057" points="129.35,-210.6 124.41,-201.23 122.42,-211.63 129.35,-210.6"/>
<text xml:space="preserve" text-anchor="middle" x="163.25" y="-218.7" font-family="Helvetica,sans-Serif" font-size="9.00">g.Go: broadcast</text>
</g>
<!-- store -->
<g id="node6" class="node">
<title>store</title>
<polygon fill="#d4edda" stroke="#28a745" points="255.62,-199.5 189.38,-199.5 189.38,-163.5 255.62,-163.5 255.62,-199.5"/>
<text xml:space="preserve" text-anchor="middle" x="222.5" y="-183.05" font-family="Helvetica,sans-Serif" font-size="11.00">Store</text>
<text xml:space="preserve" text-anchor="middle" x="222.5" y="-171.05" font-family="Helvetica,sans-Serif" font-size="11.00">(Postgres)</text>
</g>
<!-- errgroup&#45;&gt;store -->
<g id="edge2" class="edge">
<title>errgroup&#45;&gt;store</title>
<path fill="none" stroke="#495057" d="M186.89,-250.63C193.49,-238.01 201.45,-222.78 208.17,-209.92"/>
<polygon fill="#495057" stroke="#495057" points="211.23,-211.62 212.76,-201.13 205.03,-208.37 211.23,-211.62"/>
<text xml:space="preserve" text-anchor="middle" x="225.58" y="-218.7" font-family="Helvetica,sans-Serif" font-size="9.00">g.Go: save</text>
</g>
<!-- writepump -->
<g id="node7" class="node">
<title>writepump</title>
<polygon fill="#f8f9fa" stroke="#dee2e6" points="115,-117.75 0,-117.75 0,-81.75 115,-81.75 115,-117.75"/>
<text xml:space="preserve" text-anchor="middle" x="57.5" y="-101.3" font-family="Helvetica,sans-Serif" font-size="11.00">WritePump</text>
<text xml:space="preserve" text-anchor="middle" x="57.5" y="-89.3" font-family="Helvetica,sans-Serif" font-size="11.00">(goroutine per client)</text>
</g>
<!-- hub&#45;&gt;writepump -->
<g id="edge5" class="edge">
<title>hub&#45;&gt;writepump</title>
<path fill="none" stroke="#495057" d="M109.18,-163.2C100.36,-152.54 88.88,-138.67 78.98,-126.71"/>
<polygon fill="#495057" stroke="#495057" points="81.83,-124.66 72.76,-119.19 76.44,-129.12 81.83,-124.66"/>
<text xml:space="preserve" text-anchor="middle" x="122.2" y="-136.95" font-family="Helvetica,sans-Serif" font-size="9.00">send channel</text>
</g>
<!-- flusher -->
<g id="node8" class="node">
<title>flusher</title>
<polygon fill="#f8f9fa" stroke="#dee2e6" points="248,-117.75 133,-117.75 133,-81.75 248,-81.75 248,-117.75"/>
<text xml:space="preserve" text-anchor="middle" x="190.5" y="-101.3" font-family="Helvetica,sans-Serif" font-size="11.00">http.Flusher</text>
<text xml:space="preserve" text-anchor="middle" x="190.5" y="-89.3" font-family="Helvetica,sans-Serif" font-size="11.00">(goroutine per client)</text>
</g>
<!-- hub&#45;&gt;flusher -->
<g id="edge6" class="edge">
<title>hub&#45;&gt;flusher</title>
<path fill="none" stroke="#495057" d="M138.52,-163.11C143.32,-157.5 148.66,-151.26 153.5,-145.5 158.56,-139.49 163.97,-132.99 169.04,-126.86"/>
<polygon fill="#495057" stroke="#495057" points="171.53,-129.34 175.2,-119.4 166.13,-124.89 171.53,-129.34"/>
<text xml:space="preserve" text-anchor="middle" x="188.39" y="-136.95" font-family="Helvetica,sans-Serif" font-size="9.00">send channel</text>
</g>
<!-- writepump&#45;&gt;browser_ws -->
<g id="edge7" class="edge">
<title>writepump&#45;&gt;browser_ws</title>
<path fill="none" stroke="#495057" d="M57.5,-81.45C57.5,-71.52 57.5,-58.81 57.5,-47.45"/>
<polygon fill="#495057" stroke="#495057" points="61,-47.78 57.5,-37.78 54,-47.78 61,-47.78"/>
<text xml:space="preserve" text-anchor="middle" x="109.62" y="-55.2" font-family="Helvetica,sans-Serif" font-size="9.00">websocket.WriteMessage</text>
</g>
<!-- flusher&#45;&gt;browser_sse -->
<g id="edge8" class="edge">
<title>flusher&#45;&gt;browser_sse</title>
<path fill="none" stroke="#495057" d="M190.5,-81.45C190.5,-71.52 190.5,-58.81 190.5,-47.45"/>
<polygon fill="#495057" stroke="#495057" points="194,-47.78 190.5,-37.78 187,-47.78 194,-47.78"/>
<text xml:space="preserve" text-anchor="middle" x="204.75" y="-55.2" font-family="Helvetica,sans-Serif" font-size="9.00">Flush()</text>
</g>
<!-- ctx -->
<g id="node9" class="node">
<title>ctx</title>
<polygon fill="#f8d7da" stroke="#dc3545" points="187.62,-391 79.38,-391 79.38,-355 193.62,-355 193.62,-385 187.62,-391"/>
<polyline fill="none" stroke="#dc3545" points="187.62,-391 187.62,-385"/>
<polyline fill="none" stroke="#dc3545" points="193.62,-385 187.62,-385"/>
<text xml:space="preserve" text-anchor="middle" x="136.5" y="-374.55" font-family="Helvetica,sans-Serif" font-size="11.00">context.WithTimeout</text>
<text xml:space="preserve" text-anchor="middle" x="136.5" y="-362.55" font-family="Helvetica,sans-Serif" font-size="11.00">(5s deadline)</text>
</g>
<!-- ctx&#45;&gt;errgroup -->
<g id="edge4" class="edge">
<title>ctx&#45;&gt;errgroup</title>
<path fill="none" stroke="#495057" stroke-dasharray="5,2" d="M143.29,-354.8C147.63,-343.79 153.44,-329.07 158.81,-315.48"/>
<polygon fill="#495057" stroke="#495057" points="162.01,-316.91 162.42,-306.32 155.5,-314.34 162.01,-316.91"/>
<text xml:space="preserve" text-anchor="middle" x="179.77" y="-328.45" font-family="Helvetica,sans-Serif" font-size="9.00">cancels both</text>
</g>
<!-- replay_ctx -->
<g id="node10" class="node">
<title>replay_ctx</title>
<polygon fill="#f8d7da" stroke="#dc3545" points="323.62,-574 215.38,-574 215.38,-538 329.62,-538 329.62,-568 323.62,-574"/>
<polyline fill="none" stroke="#dc3545" points="323.62,-574 323.62,-568"/>
<polyline fill="none" stroke="#dc3545" points="329.62,-568 323.62,-568"/>
<text xml:space="preserve" text-anchor="middle" x="272.5" y="-557.55" font-family="Helvetica,sans-Serif" font-size="11.00">context.WithTimeout</text>
<text xml:space="preserve" text-anchor="middle" x="272.5" y="-545.55" font-family="Helvetica,sans-Serif" font-size="11.00">(configurable)</text>
</g>
<!-- replay_req -->
<g id="node11" class="node">
<title>replay_req</title>
<polygon fill="#e2e3e5" stroke="#6c757d" points="311.25,-472.75 215.75,-472.75 215.75,-436.75 311.25,-436.75 311.25,-472.75"/>
<text xml:space="preserve" text-anchor="middle" x="263.5" y="-456.3" font-family="Helvetica,sans-Serif" font-size="11.00">Outbound HTTP</text>
<text xml:space="preserve" text-anchor="middle" x="263.5" y="-444.3" font-family="Helvetica,sans-Serif" font-size="11.00">Request</text>
</g>
<!-- replay_ctx&#45;&gt;replay_req -->
<g id="edge9" class="edge">
<title>replay_ctx&#45;&gt;replay_req</title>
<path fill="none" stroke="#495057" stroke-dasharray="5,2" d="M270.93,-537.71C269.6,-523.07 267.67,-501.78 266.11,-484.57"/>
<polygon fill="#495057" stroke="#495057" points="269.61,-484.32 265.22,-474.68 262.63,-484.96 269.61,-484.32"/>
<text xml:space="preserve" text-anchor="middle" x="303.2" y="-511.45" font-family="Helvetica,sans-Serif" font-size="9.00">cancels on</text>
<text xml:space="preserve" text-anchor="middle" x="303.2" y="-501.7" font-family="Helvetica,sans-Serif" font-size="9.00">timeout or</text>
<text xml:space="preserve" text-anchor="middle" x="303.2" y="-491.95" font-family="Helvetica,sans-Serif" font-size="9.00">client disconnect</text>
</g>
<!-- replay_req&#45;&gt;webhook -->
<g id="edge10" class="edge">
<title>replay_req&#45;&gt;webhook</title>
<path fill="none" stroke="#495057" d="M263.5,-436.45C263.5,-426.52 263.5,-413.81 263.5,-402.45"/>
<polygon fill="#495057" stroke="#495057" points="267,-402.78 263.5,-392.78 260,-402.78 267,-402.78"/>
<text xml:space="preserve" text-anchor="middle" x="300.25" y="-410.2" font-family="Helvetica,sans-Serif" font-size="9.00">replays to /hook/...</text>
</g>
</g>
</svg>
